CD_DA
CD_TEXT { LANGUAGE_MAP { 0:EN }
    LANGUAGE 0 {
        TITLE "Magic Potion"
        PERFORMER "Black Keys"
        DISC_ID "9A0A0D0B"
}}

//Track 1
TRACK AUDIO
    CD_TEXT { LANGUAGE 0 {
        TITLE "Just Got To Be"
        PERFORMER "Black Keys"
    }}
    AUDIOFILE "01 - Just Got To Be.wav" 00:00:00 03:00:23

//Track 2
TRACK AUDIO
    CD_TEXT { LANGUAGE 0 {
        TITLE "Your Touch"
        PERFORMER "Black Keys"
    }}
    AUDIOFILE "01 - Just Got To Be.wav" 03:00:23
    START
    AUDIOFILE "02 - Your Touch.wav" 00:00:00 02:42:64

//Track 3
TRACK AUDIO
    CD_TEXT { LANGUAGE 0 {
        TITLE "You're The One"
        PERFORMER "Black Keys"
    }}
    AUDIOFILE "02 - Your Touch.wav" 02:42:64
    START
    AUDIOFILE "03 - You're The One.wav" 00:00:00 03:28:27

//Track 4
TRACK AUDIO
    CD_TEXT { LANGUAGE 0 {
        TITLE "Just A Little Heat"
        PERFORMER "Black Keys"
    }}
    AUDIOFILE "03 - You're The One.wav" 03:28:27
    START
    AUDIOFILE "04 - Just A Little Heat.wav" 00:00:00 03:41:42

//Track 5
TRACK AUDIO
    CD_TEXT { LANGUAGE 0 {
        TITLE "Give Your Heart Away"
        PERFORMER "Black Keys"
    }}
    AUDIOFILE "04 - Just A Little Heat.wav" 03:41:42
    START
    AUDIOFILE "05 - Give Your Heart Away.wav" 00:00:00 03:26:50

//Track 6
TRACK AUDIO
    CD_TEXT { LANGUAGE 0 {
        TITLE "Strange Desire"
        PERFORMER "Black Keys"
    }}
    AUDIOFILE "05 - Give Your Heart Away.wav" 03:26:50
    START
    AUDIOFILE "06 - Strange Desire.wav" 00:00:00 04:20:59

//Track 7
TRACK AUDIO
    CD_TEXT { LANGUAGE 0 {
        TITLE "Modern Times"
        PERFORMER "Black Keys"
    }}
    AUDIOFILE "06 - Strange Desire.wav" 04:20:59
    START
    AUDIOFILE "07 - Modern Times.wav" 00:00:00 04:20:29

//Track 8
TRACK AUDIO
    CD_TEXT { LANGUAGE 0 {
        TITLE "The Flame"
        PERFORMER "Black Keys"
    }}
    AUDIOFILE "07 - Modern Times.wav" 04:20:29
    START
    AUDIOFILE "08 - The Flame.wav" 00:00:00 04:35:74

//Track 9
TRACK AUDIO
    CD_TEXT { LANGUAGE 0 {
        TITLE "Goodbye Babylon"
        PERFORMER "Black Keys"
    }}
    AUDIOFILE "08 - The Flame.wav" 04:35:74
    START
    AUDIOFILE "09 - Goodbye Babylon.wav" 00:00:00

//Track 10
TRACK AUDIO
    CD_TEXT { LANGUAGE 0 {
        TITLE "Black Door"
        PERFORMER "Black Keys"
    }}
    AUDIOFILE "10 - Black Door.wav" 00:00:00 03:30:29

//Track 11
TRACK AUDIO
    CD_TEXT { LANGUAGE 0 {
        TITLE "Elevator"
        PERFORMER "Black Keys"
    }}
    AUDIOFILE "10 - Black Door.wav" 03:30:29
    START
    AUDIOFILE "11 - Elevator.wav" 00:00:00
